<svg id="visual" viewBox="0 0 900 600" width="900" height="600" xmlns="http://www.w3.org/2000/svg" xmlnsXlink="http://www.w3.org/1999/xlink" version="1.1"><g transform="translate(461.13394671284584 242.3219583999218)"><path d="M124.4 -144.1C159.2 -119 184 -77.9 203.9 -26.8C223.8 24.3 238.8 85.4 225.3 150.3C211.9 215.1 170.1 283.8 109.9 308.5C49.7 333.3 -28.8 314.2 -99.4 283.9C-170 253.5 -232.7 212 -248.4 156.9C-264.2 101.8 -233 33.1 -215.9 -33.6C-198.9 -100.3 -195.9 -165.1 -162.2 -190.4C-128.6 -215.7 -64.3 -201.6 -9.7 -190C44.8 -178.4 89.6 -169.2 124.4 -144.1" fill="#282828"></path></g></svg>