<svg id="visual" viewBox="0 0 900 600" width="900" height="600" xmlns="http://www.w3.org/2000/svg" xmlns:xlink="http://www.w3.org/1999/xlink" version="1.1"><path d="M0 235L82 235L82 229L164 229L164 115L245 115L245 247L327 247L327 247L409 247L409 241L491 241L491 169L573 169L573 151L655 151L655 187L736 187L736 127L818 127L818 211L900 211L900 169L900 0L900 0L818 0L818 0L736 0L736 0L655 0L655 0L573 0L573 0L491 0L491 0L409 0L409 0L327 0L327 0L245 0L245 0L164 0L164 0L82 0L82 0L0 0Z" fill="#282828"></path><path d="M0 391L82 391L82 385L164 385L164 325L245 325L245 325L327 325L327 343L409 343L409 349L491 349L491 289L573 289L573 313L655 313L655 343L736 343L736 331L818 331L818 373L900 373L900 331L900 167L900 209L818 209L818 125L736 125L736 185L655 185L655 149L573 149L573 167L491 167L491 239L409 239L409 245L327 245L327 245L245 245L245 113L164 113L164 227L82 227L82 233L0 233Z" fill="#36274f"></path><path d="M0 469L82 469L82 439L164 439L164 469L245 469L245 463L327 463L327 463L409 463L409 397L491 397L491 397L573 397L573 421L655 421L655 433L736 433L736 457L818 457L818 451L900 451L900 433L900 329L900 371L818 371L818 329L736 329L736 341L655 341L655 311L573 311L573 287L491 287L491 347L409 347L409 341L327 341L327 323L245 323L245 323L164 323L164 383L82 383L82 389L0 389Z" fill="#3e2279"></path><path d="M0 541L82 541L82 475L164 475L164 559L245 559L245 499L327 499L327 553L409 553L409 487L491 487L491 493L573 493L573 511L655 511L655 517L736 517L736 535L818 535L818 487L900 487L900 523L900 431L900 449L818 449L818 455L736 455L736 431L655 431L655 419L573 419L573 395L491 395L491 395L409 395L409 461L327 461L327 461L245 461L245 467L164 467L164 437L82 437L82 467L0 467Z" fill="#3f19a5"></path><path d="M0 601L82 601L82 601L164 601L164 601L245 601L245 601L327 601L327 601L409 601L409 601L491 601L491 601L573 601L573 601L655 601L655 601L736 601L736 601L818 601L818 601L900 601L900 601L900 521L900 485L818 485L818 533L736 533L736 515L655 515L655 509L573 509L573 491L491 491L491 485L409 485L409 551L327 551L327 497L245 497L245 557L164 557L164 473L82 473L82 539L0 539Z" fill="#3500d3"></path></svg>