<svg id="visual" viewBox="0 0 900 600" width="900" height="600" xmlns="http://www.w3.org/2000/svg" xmlns:xlink="http://www.w3.org/1999/xlink" version="1.1"><rect x="0" y="0" width="900" height="600" fill="#001220"></rect><path d="M0 331L21.5 334.8C43 338.7 86 346.3 128.8 344C171.7 341.7 214.3 329.3 257.2 322.2C300 315 343 313 385.8 313.5C428.7 314 471.3 317 514.2 320.8C557 324.7 600 329.3 642.8 331.5C685.7 333.7 728.3 333.3 771.2 327.3C814 321.3 857 309.7 878.5 303.8L900 298L900 601L878.5 601C857 601 814 601 771.2 601C728.3 601 685.7 601 642.8 601C600 601 557 601 514.2 601C471.3 601 428.7 601 385.8 601C343 601 300 601 257.2 601C214.3 601 171.7 601 128.8 601C86 601 43 601 21.5 601L0 601Z" fill="#fa7268"></path><path d="M0 345L21.5 350.8C43 356.7 86 368.3 128.8 374.7C171.7 381 214.3 382 257.2 379.5C300 377 343 371 385.8 364C428.7 357 471.3 349 514.2 350.8C557 352.7 600 364.3 642.8 371.7C685.7 379 728.3 382 771.2 377.3C814 372.7 857 360.3 878.5 354.2L900 348L900 601L878.5 601C857 601 814 601 771.2 601C728.3 601 685.7 601 642.8 601C600 601 557 601 514.2 601C471.3 601 428.7 601 385.8 601C343 601 300 601 257.2 601C214.3 601 171.7 601 128.8 601C86 601 43 601 21.5 601L0 601Z" fill="#f6556e"></path><path d="M0 412L21.5 411C43 410 86 408 128.8 402.7C171.7 397.3 214.3 388.7 257.2 387.7C300 386.7 343 393.3 385.8 396C428.7 398.7 471.3 397.3 514.2 398.8C557 400.3 600 404.7 642.8 405.7C685.7 406.7 728.3 404.3 771.2 399C814 393.7 857 385.3 878.5 381.2L900 377L900 601L878.5 601C857 601 814 601 771.2 601C728.3 601 685.7 601 642.8 601C600 601 557 601 514.2 601C471.3 601 428.7 601 385.8 601C343 601 300 601 257.2 601C214.3 601 171.7 601 128.8 601C86 601 43 601 21.5 601L0 601Z" fill="#ed337b"></path><path d="M0 422L21.5 425.5C43 429 86 436 128.8 438.5C171.7 441 214.3 439 257.2 437.7C300 436.3 343 435.7 385.8 436.8C428.7 438 471.3 441 514.2 443.7C557 446.3 600 448.7 642.8 445.3C685.7 442 728.3 433 771.2 428C814 423 857 422 878.5 421.5L900 421L900 601L878.5 601C857 601 814 601 771.2 601C728.3 601 685.7 601 642.8 601C600 601 557 601 514.2 601C471.3 601 428.7 601 385.8 601C343 601 300 601 257.2 601C214.3 601 171.7 601 128.8 601C86 601 43 601 21.5 601L0 601Z" fill="#dd008b"></path><path d="M0 479L21.5 480.5C43 482 86 485 128.8 486C171.7 487 214.3 486 257.2 486.3C300 486.7 343 488.3 385.8 484.5C428.7 480.7 471.3 471.3 514.2 471C557 470.7 600 479.3 642.8 480C685.7 480.7 728.3 473.3 771.2 472.5C814 471.7 857 477.3 878.5 480.2L900 483L900 601L878.5 601C857 601 814 601 771.2 601C728.3 601 685.7 601 642.8 601C600 601 557 601 514.2 601C471.3 601 428.7 601 385.8 601C343 601 300 601 257.2 601C214.3 601 171.7 601 128.8 601C86 601 43 601 21.5 601L0 601Z" fill="#c200a0"></path><path d="M0 514L21.5 512.5C43 511 86 508 128.8 509.3C171.7 510.7 214.3 516.3 257.2 517.7C300 519 343 516 385.8 515.3C428.7 514.7 471.3 516.3 514.2 515.8C557 515.3 600 512.7 642.8 511.3C685.7 510 728.3 510 771.2 509.3C814 508.7 857 507.3 878.5 506.7L900 506L900 601L878.5 601C857 601 814 601 771.2 601C728.3 601 685.7 601 642.8 601C600 601 557 601 514.2 601C471.3 601 428.7 601 385.8 601C343 601 300 601 257.2 601C214.3 601 171.7 601 128.8 601C86 601 43 601 21.5 601L0 601Z" fill="#9600b9"></path><path d="M0 543L21.5 542C43 541 86 539 128.8 541.2C171.7 543.3 214.3 549.7 257.2 551.3C300 553 343 550 385.8 547.5C428.7 545 471.3 543 514.2 544C557 545 600 549 642.8 551.2C685.7 553.3 728.3 553.7 771.2 551.3C814 549 857 544 878.5 541.5L900 539L900 601L878.5 601C857 601 814 601 771.2 601C728.3 601 685.7 601 642.8 601C600 601 557 601 514.2 601C471.3 601 428.7 601 385.8 601C343 601 300 601 257.2 601C214.3 601 171.7 601 128.8 601C86 601 43 601 21.5 601L0 601Z" fill="#3600d3"></path></svg>