<svg id="visual" viewBox="0 0 900 600" width="900" height="600" xmlns="http://www.w3.org/2000/svg" xmlns:xlink="http://www.w3.org/1999/xlink" version="1.1"><g transform="translate(449.74904388989376 312.39871290812016)"><path d="M146.2 -183.1C190.8 -136.8 229.4 -92 233.3 -44.8C237.2 2.3 206.5 51.9 173.5 91.7C140.5 131.6 105.1 161.6 55.2 201.4C5.2 241.2 -59.3 290.7 -98 274.4C-136.7 258 -149.5 175.9 -168.3 112.3C-187 48.6 -211.7 3.5 -224.8 -60C-237.9 -123.5 -239.5 -205.4 -200.1 -252.6C-160.7 -299.8 -80.3 -312.4 -14.8 -294.8C50.8 -277.2 101.6 -229.4 146.2 -183.1" fill="#282828"></path></g></svg>