<svg id="visual" viewBox="0 0 960 540" width="960" height="540" xmlns="http://www.w3.org/2000/svg" xmlns:xlink="http://www.w3.org/1999/xlink" version="1.1"><rect x="0" y="0" width="960" height="540" fill="#001220"></rect><path d="M0 298L22.8 301.5C45.7 305 91.3 312 137 309.8C182.7 307.7 228.3 296.3 274 289.8C319.7 283.3 365.3 281.7 411.2 282.2C457 282.7 503 285.3 548.8 288.7C594.7 292 640.3 296 686 297.8C731.7 299.7 777.3 299.3 823 294.2C868.7 289 914.3 279 937.2 274L960 269L960 541L937.2 541C914.3 541 868.7 541 823 541C777.3 541 731.7 541 686 541C640.3 541 594.7 541 548.8 541C503 541 457 541 411.2 541C365.3 541 319.7 541 274 541C228.3 541 182.7 541 137 541C91.3 541 45.7 541 22.8 541L0 541Z" fill="#fa7268"></path><path d="M0 310L22.8 315.3C45.7 320.7 91.3 331.3 137 337.2C182.7 343 228.3 344 274 341.7C319.7 339.3 365.3 333.7 411.2 327.3C457 321 503 314 548.8 315.7C594.7 317.3 640.3 327.7 686 334.2C731.7 340.7 777.3 343.3 823 339.2C868.7 335 914.3 324 937.2 318.5L960 313L960 541L937.2 541C914.3 541 868.7 541 823 541C777.3 541 731.7 541 686 541C640.3 541 594.7 541 548.8 541C503 541 457 541 411.2 541C365.3 541 319.7 541 274 541C228.3 541 182.7 541 137 541C91.3 541 45.7 541 22.8 541L0 541Z" fill="#f6556e"></path><path d="M0 371L22.8 370C45.7 369 91.3 367 137 362.2C182.7 357.3 228.3 349.7 274 348.7C319.7 347.7 365.3 353.3 411.2 355.7C457 358 503 357 548.8 358.5C594.7 360 640.3 364 686 364.8C731.7 365.7 777.3 363.3 823 358.5C868.7 353.7 914.3 346.3 937.2 342.7L960 339L960 541L937.2 541C914.3 541 868.7 541 823 541C777.3 541 731.7 541 686 541C640.3 541 594.7 541 548.8 541C503 541 457 541 411.2 541C365.3 541 319.7 541 274 541C228.3 541 182.7 541 137 541C91.3 541 45.7 541 22.8 541L0 541Z" fill="#ed337b"></path><path d="M0 380L22.8 383.2C45.7 386.3 91.3 392.7 137 394.8C182.7 397 228.3 395 274 393.7C319.7 392.3 365.3 391.7 411.2 392.8C457 394 503 397 548.8 399.5C594.7 402 640.3 404 686 400.8C731.7 397.7 777.3 389.3 823 384.8C868.7 380.3 914.3 379.7 937.2 379.3L960 379L960 541L937.2 541C914.3 541 868.7 541 823 541C777.3 541 731.7 541 686 541C640.3 541 594.7 541 548.8 541C503 541 457 541 411.2 541C365.3 541 319.7 541 274 541C228.3 541 182.7 541 137 541C91.3 541 45.7 541 22.8 541L0 541Z" fill="#dd008b"></path><path d="M0 431L22.8 432.3C45.7 433.7 91.3 436.3 137 437.2C182.7 438 228.3 437 274 437.3C319.7 437.7 365.3 439.3 411.2 436C457 432.7 503 424.3 548.8 424C594.7 423.7 640.3 431.3 686 432C731.7 432.7 777.3 426.3 823 425.7C868.7 425 914.3 430 937.2 432.5L960 435L960 541L937.2 541C914.3 541 868.7 541 823 541C777.3 541 731.7 541 686 541C640.3 541 594.7 541 548.8 541C503 541 457 541 411.2 541C365.3 541 319.7 541 274 541C228.3 541 182.7 541 137 541C91.3 541 45.7 541 22.8 541L0 541Z" fill="#c200a0"></path><path d="M0 463L22.8 461.5C45.7 460 91.3 457 137 458C182.7 459 228.3 464 274 465.3C319.7 466.7 365.3 464.3 411.2 463.8C457 463.3 503 464.7 548.8 464.2C594.7 463.7 640.3 461.3 686 460.2C731.7 459 777.3 459 823 458.3C868.7 457.7 914.3 456.3 937.2 455.7L960 455L960 541L937.2 541C914.3 541 868.7 541 823 541C777.3 541 731.7 541 686 541C640.3 541 594.7 541 548.8 541C503 541 457 541 411.2 541C365.3 541 319.7 541 274 541C228.3 541 182.7 541 137 541C91.3 541 45.7 541 22.8 541L0 541Z" fill="#9600b9"></path><path d="M0 489L22.8 488C45.7 487 91.3 485 137 486.8C182.7 488.7 228.3 494.3 274 495.8C319.7 497.3 365.3 494.7 411.2 492.3C457 490 503 488 548.8 489C594.7 490 640.3 494 686 496C731.7 498 777.3 498 823 495.8C868.7 493.7 914.3 489.3 937.2 487.2L960 485L960 541L937.2 541C914.3 541 868.7 541 823 541C777.3 541 731.7 541 686 541C640.3 541 594.7 541 548.8 541C503 541 457 541 411.2 541C365.3 541 319.7 541 274 541C228.3 541 182.7 541 137 541C91.3 541 45.7 541 22.8 541L0 541Z" fill="#3600d3"></path></svg>